HIERARCHY
ROOT hip
{
  OFFSET 0 0 0
  CHANNELS 6 Xposition Yposition Zposition Zrotation Yrotation Xrotation
  JOINT abdomen
  {
    OFFSET 0 20.6881 -0.73152
    CHANNELS 3 Zrotation Xrotation Yrotation
    JOINT chest
    {
      OFFSET 0 11.7043 -0.48768
      CHANNELS 3 Zrotation Xrotation Yrotation
      JOINT neck
      {
        OFFSET 0 22.1894 -2.19456
        CHANNELS 3 Zrotation Xrotation Yrotation
        JOINT head
        {
          OFFSET -0.24384 7.07133 1.2192
          CHANNELS 3 Zrotation Xrotation Yrotation
          JOINT leftEye
          {
            OFFSET 4.14528 8.04674 8.04672
            CHANNELS 3 Zrotation Xrotation Yrotation
            End Site
            {
              OFFSET 1 0 0
            }
          }
          JOINT rightEye
          {
            OFFSET -3.6576 8.04674 8.04672
            CHANNELS 3 Zrotation Xrotation Yrotation
            End Site
            {
              OFFSET 1 0 0
            }
          }
        }
      }
      JOINT rCollar
      {
        OFFSET -2.68224 19.2634 -4.8768
        CHANNELS 3 Zrotation Xrotation Yrotation
        JOINT rShldr
        {
          OFFSET -8.77824 -1.95073 1.46304
          CHANNELS 3 Zrotation Xrotation Yrotation
          JOINT rForeArm
          {
            OFFSET -28.1742 -1.7115 0.48768
            CHANNELS 3 Zrotation Xrotation Yrotation
            JOINT rHand
            {
              OFFSET -22.5879 0.773209 7.07136
              CHANNELS 3 Zrotation Xrotation Yrotation
              JOINT rThumb1
              {
                OFFSET -1.2192 -0.487915 3.41376
                CHANNELS 3 Zrotation Xrotation Yrotation
                JOINT rThumb2
                {
                  OFFSET -3.37035 -0.52449 3.41376
                  CHANNELS 3 Zrotation Xrotation Yrotation
                  End Site
                  {
                    OFFSET -1.78271 -1.18214 1.43049
                  }
                }
              }
              JOINT rIndex1
              {
                OFFSET -7.75947 0.938293 5.60832
                CHANNELS 3 Zrotation Xrotation Yrotation
                JOINT rIndex2
                {
                  OFFSET -2.54057 -0.884171 1.56538
                  CHANNELS 3 Zrotation Xrotation Yrotation
                  End Site
                  {
                    OFFSET -1.62519 -0.234802 1.16502
                  }
                }
              }
              JOINT rMid1
              {
                OFFSET -8.24714 1.18213 3.41376
                CHANNELS 3 Zrotation Xrotation Yrotation
                JOINT rMid2
                {
                  OFFSET -3.10165 -0.590103 1.0647
                  CHANNELS 3 Zrotation Xrotation Yrotation
                  End Site
                  {
                    OFFSET -2.48547 -0.328903 0.83742
                  }
                }
              }
              JOINT rRing1
              {
                OFFSET -8.82822 0.546677 1.51678
                CHANNELS 3 Zrotation Xrotation Yrotation
                JOINT rRing2
                {
                  OFFSET -2.60934 -0.819778 -0.0198488
                  CHANNELS 3 Zrotation Xrotation Yrotation
                  End Site
                  {
                    OFFSET -2.33842 -0.294052 0.168128
                  }
                }
              }
              JOINT rPinky1
              {
                OFFSET -8.27202 -0.0477905 -0.4584
                CHANNELS 3 Zrotation Xrotation Yrotation
                JOINT rPinky2
                {
                  OFFSET -1.82734 -0.647385 -0.700984
                  CHANNELS 3 Zrotation Xrotation Yrotation
                  End Site
                  {
                    OFFSET -1.69225 -0.51767 -0.607171
                  }
                }
              }
            }
          }
        }
      }
      JOINT lCollar
      {
        OFFSET 2.68224 19.2634 -4.8768
        CHANNELS 3 Zrotation Xrotation Yrotation
        JOINT lShldr
        {
          OFFSET 8.77824 -1.95073 1.46304
          CHANNELS 3 Zrotation Xrotation Yrotation
          JOINT lForeArm
          {
            OFFSET 28.1742 -1.7115 0.48768
            CHANNELS 3 Zrotation Xrotation Yrotation
            JOINT lHand
            {
              OFFSET 22.5879 0.773209 7.07136
              CHANNELS 3 Zrotation Xrotation Yrotation
              JOINT lThumb1
              {
                OFFSET 1.2192 -0.487915 3.41376
                CHANNELS 3 Zrotation Xrotation Yrotation
                JOINT lThumb2
                {
                  OFFSET 3.37035 -0.52449 3.41376
                  CHANNELS 3 Zrotation Xrotation Yrotation
                  End Site
                  {
                    OFFSET 1.78271 -1.18214 1.43049
                  }
                }
              }
              JOINT lIndex1
              {
                OFFSET 7.75947 0.938293 5.60832
                CHANNELS 3 Zrotation Xrotation Yrotation
                JOINT lIndex2
                {
                  OFFSET 2.54057 -0.884171 1.56538
                  CHANNELS 3 Zrotation Xrotation Yrotation
                  End Site
                  {
                    OFFSET 1.62519 -0.234802 1.16502
                  }
                }
              }
              JOINT lMid1
              {
                OFFSET 8.24714 1.18213 3.41376
                CHANNELS 3 Zrotation Xrotation Yrotation
                JOINT lMid2
                {
                  OFFSET 3.10165 -0.590103 1.0647
                  CHANNELS 3 Zrotation Xrotation Yrotation
                  End Site
                  {
                    OFFSET 2.48547 -0.328903 0.83742
                  }
                }
              }
              JOINT lRing1
              {
                OFFSET 8.82822 0.546677 1.51678
                CHANNELS 3 Zrotation Xrotation Yrotation
                JOINT lRing2
                {
                  OFFSET 2.60934 -0.819778 -0.0198488
                  CHANNELS 3 Zrotation Xrotation Yrotation
                  End Site
                  {
                    OFFSET 2.33842 -0.294052 0.168128
                  }
                }
              }
              JOINT lPinky1
              {
                OFFSET 8.27202 -0.0477905 -0.4584
                CHANNELS 3 Zrotation Xrotation Yrotation
                JOINT lPinky2
                {
                  OFFSET 1.82734 -0.647385 -0.700984
                  CHANNELS 3 Zrotation Xrotation Yrotation
                  End Site
                  {
                    OFFSET 1.69225 -0.51767 -0.607171
                  }
                }
              }
            }
          }
        }
      }
    }
  }
  JOINT rButtock
  {
    OFFSET -8.77824 4.35084 1.2192
    CHANNELS 3 Zrotation Xrotation Yrotation
    JOINT rThigh
    {
      OFFSET 0 -1.70687 -2.19456
      CHANNELS 3 Zrotation Xrotation Yrotation
      JOINT rShin
      {
        OFFSET 0 -36.8199 0.73152
        CHANNELS 3 Zrotation Xrotation Yrotation
        JOINT rFoot
        {
          OFFSET 0.73152 -45.1104 -5.12064
          CHANNELS 3 Zrotation Xrotation Yrotation
          End Site
          {
            OFFSET -1.1221 -3.69964 12.103
          }
        }
      }
    }
  }
  JOINT lButtock
  {
    OFFSET 8.77824 4.35084 1.2192
    CHANNELS 3 Zrotation Xrotation Yrotation
    JOINT lThigh
    {
      OFFSET 0 -1.70687 -2.19456
      CHANNELS 3 Zrotation Xrotation Yrotation
      JOINT lShin
      {
        OFFSET 0 -36.8199 0.73152
        CHANNELS 3 Zrotation Xrotation Yrotation
        JOINT lFoot
        {
          OFFSET -0.73152 -45.1104 -5.12064
          CHANNELS 3 Zrotation Xrotation Yrotation
          End Site
          {
            OFFSET 1.1221 -3.69964 12.103
          }
        }
      }
    }
  }
}
MOTION
Frames:	4
Frame Time:	0.00833333
-2.26511 69.323 236.668 0.0 0.0 0.0 1.57504 -0.00270791 0.0428963 0.434166 0.00151618 0.0751874 2.17263e-14 0.0 1.2424e-16 6.48473e-14 3.18055e-15 4.4416e-16 -0.0 0.0 0.0 -0.0 0.0 0.0 1.09319e-14 -5.45493e-17 1.98785e-16 2.28654e-13 -6.89534e-16 3.18055e-15 3.90557e-12 -1.20424e-12 -3.18055e-15 4.46895e-11 9.77275e-13 3.40319e-13 1.05413e-10 -4.97835e-13 7.25166e-13 1.82036e-10 -8.65111e-13 1.25234e-12 1.05417e-10 -4.99347e-13 7.12444e-13 7.73091 5.47488 0.417314 1.05412e-10 -4.9885e-13 7.28347e-13 2.90554 0.965183 0.102902 1.05416e-10 -4.98055e-13 7.25962e-13 10.2786 0.731801 0.0259123 1.05404e-10 -4.93781e-13 7.41069e-13 2.22167 -0.733487 -0.20892 1.08358e-14 -5.59082e-17 -4.96962e-17 2.25499e-13 -1.07468e-15 9.93923e-16 3.90388e-12 1.13108e-12 3.18055e-15 4.46998e-11 -1.3779e-12 3.435e-13 1.05437e-10 -5.38752e-13 7.18805e-13 1.82099e-10 -9.35083e-13 1.24201e-12 1.05435e-10 -5.39502e-13 7.34708e-13 -7.73091 5.47488 -0.417314 1.05439e-10 -5.39303e-13 7.18805e-13 -2.90554 0.965183 -0.102902 1.05432e-10 -5.38508e-13 7.21191e-13 -10.2786 0.731801 -0.0259123 1.05446e-10 -5.34333e-13 7.12444e-13 -2.22167 -0.733487 0.20892 -2.03217e-16 0.0 -3.88251e-19 1.70448 -6.60404 -0.159314 0.00258942 6.39972 0.0733855 -0.527631 0.199724 0.0640442 2.03217e-16 0.0 3.88251e-19 0.691873 -1.9236 0.00558414 0.00917856 -2.07857 0.0757551 0.503121 3.99746 -0.138979
-0.878602 66.1553 231.981 -174.831 -0.7259 -156.737 4.52963 4.46552 0.542098 0.085606 -2.69109 0.315245 -0.0780896 -0.194406 -0.667852 0.302552 -9.35559 -0.797446 -0.0 0.0 0.0 -0.0 0.0 0.0 2.95192e-14 2.57076e-15 2.51797e-14 20.7858 10.4696 0.92571 -21.4123 -19.2713 15.1724 9.16732e-05 -0.301764 -0.042411 2.24197e-10 4.77067e-10 -4.82713e-10 3.88709e-10 8.23713e-10 -8.35638e-10 2.24202e-10 4.77063e-10 -4.82725e-10 7.73091 5.47488 0.417314 2.24197e-10 4.77063e-10 -4.8271e-10 2.90554 0.965183 0.102902 2.24202e-10 4.77068e-10 -4.82713e-10 10.2786 0.731801 0.0259123 2.24189e-10 4.77072e-10 -4.82699e-10 2.22167 -0.733487 -0.20892 2.94093e-14 2.56682e-15 2.49879e-14 -22.1403 14.258 9.16033 20.7773 -18.5778 -15.138 -0.0385339 -4.38206 0.609488 2.48754e-11 4.81918e-11 9.52416e-11 4.14292e-11 8.14593e-11 1.64474e-10 2.48741e-11 4.81911e-11 9.52574e-11 -7.73091 5.47488 -0.417314 2.4878e-11 4.8193e-11 9.52434e-11 -2.90554 0.965183 -0.102902 2.48705e-11 4.81927e-11 9.52441e-11 -10.2786 0.731801 -0.0259123 2.48842e-11 4.81968e-11 9.52368e-11 -2.22167 -0.733487 0.20892 -2.03217e-16 0.0 -3.88251e-19 3.07351 -5.99115 -0.0266657 0.155685 18.3591 0.391772 -0.663575 5.30364 -0.50316 2.03217e-16 0.0 3.88251e-19 1.38326 -22.6388 2.53983 0.102279 16.9946 -0.140569 0.148957 1.26592 -3.35429
-0.739832 66.1064 229.561 -174.663 -0.4704 -156.561 7.63793 9.17353 1.12073 -0.274835 -5.53403 0.587115 -0.177523 -0.407699 -1.3855 0.316954 -19.2386 -1.73493 -0.0 0.0 0.0 -0.0 0.0 0.0 5.015e-14 2.16558e-15 5.36284e-14 42.2541 21.5799 2.1179 -31.6014 -35.0746 36.8896 -0.000351765 -0.596053 -0.0837776 3.73891e-10 9.96981e-10 -1.05783e-09 6.49022e-10 1.72121e-09 -1.83101e-09 3.73896e-10 9.96975e-10 -1.05784e-09 7.73091 5.47488 0.417314 3.73893e-10 9.96975e-10 -1.05783e-09 2.90554 0.965183 0.102902 3.73897e-10 9.96984e-10 -1.05783e-09 10.2786 0.731801 0.0259123 3.73884e-10 9.96986e-10 -1.05782e-09 2.22167 -0.733487 -0.20892 5.00222e-14 2.1588e-15 5.34979e-14 -51.0344 28.0303 21.052 30.8151 -33.6429 -36.236 0.023832 -9.06747 1.2735 -6.16292e-11 1.36797e-10 2.34345e-10 -1.10005e-10 2.3208e-10 4.04718e-10 -6.16296e-11 1.36796e-10 2.34361e-10 -7.73091 5.47488 -0.417314 -6.16257e-11 1.368e-10 2.34349e-10 -2.90554 0.965183 -0.102902 -6.16339e-11 1.36798e-10 2.34348e-10 -10.2786 0.731801 -0.0259123 -6.162e-11 1.36802e-10 2.34342e-10 -2.22167 -0.733487 0.20892 -2.03217e-16 0.0 -3.88251e-19 4.59262 -5.12233 0.194014 0.154412 30.6839 0.802494 -0.696678 10.7938 -1.09145 2.03217e-16 0.0 3.88251e-19 4.94535 -44.5758 6.81832 0.390578 37.1876 -0.447953 -0.548113 -1.4567 -6.795
-0.685253 66.308 226.809 -174.813 -0.5602 -156.861 10.1996 13.3977 1.57853 -0.543212 -8.07565 0.802273 -0.247862 -0.582901 -2.00365 0.0383613 -28.0435 -2.67474 -0.0 0.0 0.0 -0.0 0.0 0.0 6.66937e-14 7.82139e-15 7.51414e-14 61.1955 31.3732 3.19898 -30.1723 -39.244 61.5387 -0.00106534 -0.90529 -0.127247 4.61766e-10 1.4322e-09 -1.44959e-09 8.02054e-10 2.47287e-09 -2.50942e-09 4.61772e-10 1.43219e-09 -1.4496e-09 7.73091 5.47488 0.417314 4.61769e-10 1.43219e-09 -1.44959e-09 2.90554 0.965183 0.102902 4.61773e-10 1.4322e-09 -1.44959e-09 10.2786 0.731801 0.0259123 4.6176e-10 1.4322e-09 -1.44958e-09 2.22167 -0.733487 -0.20892 6.65562e-14 7.81229e-15 7.5063e-14 -82.4973 37.8154 34.5646 30.0599 -38.1335 -60.1092 0.170433 -13.1401 1.87215 -1.36248e-10 1.45653e-10 2.84287e-10 -2.39912e-10 2.46248e-10 4.90939e-10 -1.36248e-10 1.45652e-10 2.84303e-10 -7.73091 5.47488 -0.417314 -1.36244e-10 1.45658e-10 2.84293e-10 -2.90554 0.965183 -0.102902 -1.36253e-10 1.45655e-10 2.8429e-10 -10.2786 0.731801 -0.0259123 -1.36239e-10 1.45659e-10 2.84286e-10 -2.22167 -0.733487 0.20892 -2.03217e-16 0.0 -3.88251e-19 5.80304 -4.76526 0.237775 -0.0658316 42.2717 1.31044 -0.622796 15.5056 -1.69273 2.03217e-16 0.0 3.88251e-19 13.9788 -63.2569 15.7614 0.967017 55.1373 -0.970447 -1.47588 -4.12962 -9.80886
